<svg xmlns="http://www.w3.org/2000/svg" width="1500" height="1500" viewBox="0 0 1500 1500" fill="none"><path d="M1324.33 267.846C1481.84 455.824 1544.08 717.213 1467.03 969.22C1345.96 1365.23 926.787 1588.11 530.778 1467.04C431.275 1436.62 342.704 1387.37 267.771 1324.4L374.408 1217.77C576.308 1378.52 846.569 1459.83 1092.95 1396.48C1122.93 1388.29 1152 1377.66 1179.46 1364.57C1149.74 1371.03 1119.68 1374.99 1089.66 1376.8C850.332 1386.37 625.759 1288.24 448.54 1143.64L1324.33 267.846ZM192.324 1251.36C215.624 1277.33 240.815 1301.75 267.771 1324.4L148.441 1443.74C127.939 1464.24 94.6976 1464.24 74.1952 1443.73C53.6928 1423.23 53.6927 1389.99 74.1952 1369.49L192.324 1251.36ZM158.395 289.014C143.539 316.767 130.963 343.113 119.341 372.581C9.21352 625.905 92.3604 951.422 295.664 1148.02L192.324 1251.36C22.6243 1062.24 -46.7458 791.487 32.9608 530.777C60.5546 440.522 103.635 359.261 158.395 289.014ZM370.061 1073.62C373.834 1077.32 377.639 1080.99 381.479 1084.63C402.973 1105 425.352 1124.72 448.54 1143.64L374.408 1217.77C351.482 1199.51 329.436 1180.24 308.408 1160.03C304.109 1156.08 299.861 1152.08 295.664 1148.02L370.061 1073.62ZM158.431 288.969C343.943 51.0286 663.484 -60.5111 969.218 32.9616C1077.35 66.0206 1172.57 121.306 1251.41 192.276L370.061 1073.62C190.328 897.197 88.6414 642.099 138.541 378.001C143.904 347.531 150.059 319.337 158.431 288.969ZM1389.06 54.6237C1409.56 34.1212 1442.8 34.122 1463.31 54.6247C1483.81 75.1273 1483.81 108.368 1463.31 128.871L1324.33 267.846C1301.91 241.089 1277.56 215.82 1251.41 192.276L1389.06 54.6237Z" fill="black"></path><style>@media (prefers-color-scheme: light) { :root { filter: none; } }
@media (prefers-color-scheme: dark) { :root { filter: invert(100%); } }
</style></svg>